<svg height="472pt" viewBox="4 4 472 472" width="472pt" xmlns="http://www.w3.org/2000/svg"><path d="m208 376c-.039062 26.492188-21.507812 47.960938-48 48l-16 48h192l-16-48c-26.492188-.039062-47.960938-21.507812-48-48 0-26.507812 21.492188-48 48-48h-160c26.507812 0 48 21.492188 48 48zm0 0" fill="#bcbec0"/><path d="m456 8h-432c-8.835938 0-16 7.164062-16 16v256h464v-256c0-8.835938-7.164062-16-16-16zm-104 88v144h-224v-176h224zm0 0" fill="#00d7df"/><path d="m8 312c0 8.835938 7.164062 16 16 16h432c8.835938 0 16-7.164062 16-16v-32h-464zm0 0" fill="#bcbec0"/><path d="m184 96h56v48h-56zm0 0" fill="#bcbec0"/><path d="m240 144h56v48h-56zm0 0" fill="#bcbec0"/><path d="m240 96h56v48h-56zm0 0" fill="#ff9811"/><g fill="#bcbec0"><path d="m184 144h56v48h-56zm0 0"/><path d="m296 144h56v48h-56zm0 0"/><path d="m240 192h56v48h-56zm0 0"/><path d="m296 96h56v48h-56zm0 0"/></g><path d="m128 96h56v48h-56zm0 0" fill="#ff9811"/><path d="m184 192h56v48h-56zm0 0" fill="#bcbec0"/><path d="m128 144h56v48h-56zm0 0" fill="#bcbec0"/><path d="m128 192h56v48h-56zm0 0" fill="#bcbec0"/><path d="m296 192h56v48h-56zm0 0" fill="#ff9811"/><path d="m240 64h-112v32h224v-32zm0 0" fill="#ffd6a0"/><path d="m456 0h-432c-13.253906 0-24 10.746094-24 24v288c0 13.253906 10.746094 24 24 24h136c22.082031.027344 39.972656 17.917969 40 40-.039062 22.074219-17.925781 39.960938-40 40-.113281 0-.207031.054688-.3125.0625-1.023438.171875-2.03125.40625-3.023438.714844-.453124.246094-.882812.535156-1.28125.863281-.421874.265625-.820312.570313-1.183593.910156-.296875.371094-.566407.765625-.800781 1.175781-.320313.460938-.589844.953126-.796876 1.472657-.042968.097656-.121093.167969-.160156.273437l-16 48c-.8125 2.433594-.40625 5.109375 1.089844 7.195313 1.496094 2.082031 3.902344 3.324219 6.46875 3.332031h192c2.570312 0 4.988281-1.234375 6.492188-3.320312 1.503906-2.085938 1.914062-4.769532 1.101562-7.207032l-16-48c0-.105468-.121094-.175781-.160156-.273437-.226563-.519531-.507813-1.015625-.839844-1.472657-.234375-.410156-.503906-.804687-.800781-1.175781-.375-.34375-.777344-.65625-1.207031-.925781-.394532-.320312-.8125-.605469-1.257813-.847656-.449219-.171875-.910156-.300782-1.382813-.386719-.523437-.160156-1.058593-.273437-1.601562-.328125-.113281 0-.199219-.0625-.3125-.0625-22.074219-.039062-39.960938-17.925781-40-40 .027344-22.082031 17.921875-39.972656 40-40h135.96875c13.253906 0 24-10.746094 24-24v-288c0-13.253906-10.746094-24-24-24zm-192 376c.03125 28.640625 21.648438 52.65625 50.128906 55.6875l10.773438 32.3125h-169.804688l10.773438-32.3125c28.480468-3.039062 50.089844-27.046875 50.128906-55.6875.003906-15.066406-6.085938-29.496094-16.886719-40h81.773438c-10.800781 10.503906-16.890625 24.933594-16.886719 40zm200-64c0 4.417969-3.582031 8-8 8h-432c-4.417969 0-8-3.582031-8-8v-24h448zm-448-40v-248c0-4.417969 3.582031-8 8-8h432c4.417969 0 8 3.582031 8 8v248zm0 0" fill="#231f20"/><path d="m352 56h-48v-16h-16v16h-40v-16h-16v16h-40v-16h-16v16h-48c-4.417969 0-8 3.582031-8 8v176c0 4.417969 3.582031 8 8 8h224c4.417969 0 8-3.582031 8-8v-176c0-4.417969-3.582031-8-8-8zm-216 16h208v16h-208zm208 64h-40v-32h40zm-56-32v32h-40v-32zm-56 32h-40v-32h40zm-56 0h-40v-32h40zm-40 16h40v32h-40zm56 0h40v32h-40zm40 48v32h-40v-32zm16 0h40v32h-40zm0-16v-32h40v32zm56-32h40v32h-40zm-168 48h40v32h-40zm168 32v-32h40v32zm0 0" fill="#231f20"/></svg>